# xmcd
#
# Track frame offsets:
#	150
#	19662
#	35677
#	44805
#	56662
#	66490
#	80925
#	98212
#	111475
#	120260
#	137790
#	149010
#
# Disc length: 2509 seconds
#
# Revision: 1
# Processed by: cddbd v1.5.2PL0 Copyright (c) Steve Scherf et al.
# Submitted via: EZCDAudioConverter 4.0.5.1
#
DISCID=be09cb0c
DTITLE=Ricky Skaggs - Ancient Tones
DYEAR=1999
DGENRE=Country
TTITLE0=Walls of Time
TTITLE1=Lonesome Night
TTITLE2=How Mountain Girls Can Love
TTITLE3=Mighty Dark to Travel
TTITLE4=Carolina Mountain Home
TTITLE5=Connemara
TTITLE6=Coal Minin' Man
TTITLE7=I Believed in You Darlin'
TTITLE8=Pig in a Pen
TTITLE9=Give Us Rain
TTITLE10=Boston Boy
TTITLE11=Little Bessie
EXTD=
EXTT0=
EXTT1=
EXTT2=
EXTT3=
EXTT4=
EXTT5=
EXTT6=
EXTT7=
EXTT8=
EXTT9=
EXTT10=
EXTT11=
PLAYORDER=
